<?xml version="1.0" encoding="UTF-8"?>
<!DOCTYPE svg PUBLIC "-//W3C//DTD SVG 1.1//EN" "http://www.w3.org/Graphics/SVG/1.1/DTD/svg11.dtd">
<svg xmlns="http://www.w3.org/2000/svg" version="1.1" width="405px" height="201px" style="shape-rendering:geometricPrecision; text-rendering:geometricPrecision; image-rendering:optimizeQuality; fill-rule:evenodd; clip-rule:evenodd" xmlns:xlink="http://www.w3.org/1999/xlink">
<g><path style="opacity:1" fill="#fdfdfd" d="M -0.5,-0.5 C 134.5,-0.5 269.5,-0.5 404.5,-0.5C 404.5,66.5 404.5,133.5 404.5,200.5C 300.5,200.5 196.5,200.5 92.5,200.5C 102.332,198.045 112.332,195.879 122.5,194C 123.672,193.581 124.672,192.915 125.5,192C 121.5,191.833 117.5,191.667 113.5,191.5C 90.2069,193.286 67.2069,196.286 44.5,200.5C 29.5,200.5 14.5,200.5 -0.5,200.5C -0.5,133.5 -0.5,66.5 -0.5,-0.5 Z"/></g>
<g><path style="opacity:1" fill="#e79b4d" d="M 132.5,34.5 C 132.5,37.5 132.5,40.5 132.5,43.5C 130.236,44.2186 127.903,44.552 125.5,44.5C 123.631,42.3647 122.964,39.6981 123.5,36.5C 126.219,35.087 129.219,34.4203 132.5,34.5 Z"/></g>
<g><path style="opacity:1" fill="#f98a1b" d="M 124.5,36.5 C 126.833,36.5 129.167,36.5 131.5,36.5C 131.5,38.5 131.5,40.5 131.5,42.5C 129.194,42.9926 126.861,43.3259 124.5,43.5C 124.5,41.1667 124.5,38.8333 124.5,36.5 Z"/></g>
<g><path style="opacity:1" fill="#e4664a" d="M 106.5,39.5 C 108.5,39.5 110.5,39.5 112.5,39.5C 112.5,42.1667 112.5,44.8333 112.5,47.5C 112.167,47.5 111.833,47.5 111.5,47.5C 111.5,45.1667 111.5,42.8333 111.5,40.5C 109.5,40.5 107.5,40.5 105.5,40.5C 102.345,40.9896 99.3447,41.6562 96.5,42.5C 94.8333,42.5 93.1667,42.5 91.5,42.5C 90.5,42.5 89.5,42.5 88.5,42.5C 94.2908,41.0126 100.291,40.0126 106.5,39.5 Z"/></g>
<g><path style="opacity:1" fill="#04172a" d="M 100.5,4.5 C 104.888,3.94328 108.055,5.60995 110,9.5C 110.5,18.1603 110.666,26.8269 110.5,35.5C 106.176,35.9272 101.842,36.2605 97.5,36.5C 97.5,35.5 97.5,34.5 97.5,33.5C 78.7703,35.788 60.1037,38.6213 41.5,42C 41,42.5 40.5,43 40,43.5C 39.5,81.8319 39.3333,120.165 39.5,158.5C 58.5549,156.102 77.5549,153.269 96.5,150C 97.1574,137.895 97.824,125.729 98.5,113.5C 102.378,111.991 106.378,110.991 110.5,110.5C 110.667,129.836 110.5,149.17 110,168.5C 109.31,171.196 107.81,173.363 105.5,175C 80.6936,180.079 55.6936,183.746 30.5,186C 28.6667,185.5 27.5,184.333 27,182.5C 26.3333,129.5 26.3333,76.5 27,23.5C 27.786,20.4173 29.6193,18.2506 32.5,17C 55.3567,13.1265 78.0234,8.95986 100.5,4.5 Z"/></g>
<g><path style="opacity:1" fill="#d4e0e6" d="M 79.5,21.5 C 80.5,21.5 81.5,21.5 82.5,21.5C 82.5,22.5 82.5,23.5 82.5,24.5C 74.4483,25.5549 66.4483,26.8882 58.5,28.5C 58.5,27.5 58.5,26.5 58.5,25.5C 65.7115,24.6567 72.7115,23.3233 79.5,21.5 Z"/></g>
<g><path style="opacity:1" fill="#ee1340" d="M 85.5,44.5 C 85.3893,45.1174 85.056,45.6174 84.5,46C 85.5985,48.6056 86.9319,51.1056 88.5,53.5C 87.1667,54.8333 87.1667,56.1667 88.5,57.5C 88.0233,58.4776 87.3567,59.3109 86.5,60C 87.3366,61.0113 87.67,62.1779 87.5,63.5C 84.5274,62.9159 81.5274,62.2492 78.5,61.5C 80.686,60.7792 82.8526,60.1125 85,59.5C 85.4955,57.5273 85.6621,55.5273 85.5,53.5C 83.4727,53.3379 81.4727,53.5045 79.5,54C 78.8095,55.0674 78.3095,56.2341 78,57.5C 75.9243,54.1069 74.7576,50.4402 74.5,46.5C 77.9496,45.0905 81.6163,44.4238 85.5,44.5 Z"/></g>
<g><path style="opacity:1" fill="#fa283a" d="M 91.5,42.5 C 93.1667,42.5 94.8333,42.5 96.5,42.5C 98.1992,42.3398 99.8659,42.5065 101.5,43C 100.253,44.4579 100.253,45.9579 101.5,47.5C 100.757,48.1818 100.091,48.8485 99.5,49.5C 98.3065,49.9704 97.6399,50.9704 97.5,52.5C 97.5195,53.7261 97.8529,54.7261 98.5,55.5C 99.8333,55.5 101.167,55.5 102.5,55.5C 102.833,55.5 103.167,55.5 103.5,55.5C 99.363,60.0413 100.03,63.0413 105.5,64.5C 103.896,65.6026 102.896,67.1026 102.5,69C 103.989,71.751 105.989,74.0843 108.5,76C 107.464,77.7755 107.464,79.6089 108.5,81.5C 107.417,81.4606 106.417,81.1272 105.5,80.5C 103.477,82.1733 101.144,82.8399 98.5,82.5C 98.4208,81.0695 98.7542,79.7362 99.5,78.5C 95.3071,75.4938 95.8071,73.4938 101,72.5C 101.941,70.0106 101.441,68.0106 99.5,66.5C 98.6661,65.2521 97.3328,64.5854 95.5,64.5C 94.1667,64.6667 92.8333,64.8333 91.5,65C 92.3081,65.3076 92.9747,65.8076 93.5,66.5C 92.9017,67.7946 92.4017,69.1279 92,70.5C 89.8532,68.5206 88.3532,66.1873 87.5,63.5C 87.67,62.1779 87.3366,61.0113 86.5,60C 87.3567,59.3109 88.0233,58.4776 88.5,57.5C 87.1667,56.1667 87.1667,54.8333 88.5,53.5C 86.9319,51.1056 85.5985,48.6056 84.5,46C 85.056,45.6174 85.3893,45.1174 85.5,44.5C 87.7857,44.405 89.7857,43.7384 91.5,42.5 Z"/></g>
<g><path style="opacity:1" fill="#f9cdac" d="M 123.5,36.5 C 122.964,39.6981 123.631,42.3647 125.5,44.5C 124.252,47.7378 123.585,51.2378 123.5,55C 123.515,58.5758 124.182,61.7425 125.5,64.5C 125.158,65.3382 124.492,65.6716 123.5,65.5C 122.51,59.3554 122.177,53.0221 122.5,46.5C 119.941,46.1984 117.607,46.5318 115.5,47.5C 114.5,47.5 113.5,47.5 112.5,47.5C 112.5,44.8333 112.5,42.1667 112.5,39.5C 110.5,39.5 108.5,39.5 106.5,39.5C 108.607,38.5318 110.941,38.1984 113.5,38.5C 113.318,40.5914 113.652,42.5914 114.5,44.5C 117.086,45.48 119.753,45.8134 122.5,45.5C 122.19,42.2869 122.523,39.2869 123.5,36.5 Z"/></g>
<g><path style="opacity:1" fill="#fef5dd" d="M 132.5,34.5 C 133.473,36.9479 133.806,39.6146 133.5,42.5C 135.167,42.5 136.833,42.5 138.5,42.5C 140.171,49.8473 137.838,51.8473 131.5,48.5C 129.608,49.8129 127.941,49.6462 126.5,48C 127.167,47.6667 127.833,47.3333 128.5,47C 127.207,46.51 125.873,46.3433 124.5,46.5C 124.338,48.5273 124.505,50.5273 125,52.5C 126.622,53.0989 128.122,53.7656 129.5,54.5C 133.258,56.2541 137.258,56.9208 141.5,56.5C 141.5,57.8333 141.5,59.1667 141.5,60.5C 143.099,60.2322 144.432,60.5655 145.5,61.5C 143.833,61.5 142.167,61.5 140.5,61.5C 140.5,60.1667 140.5,58.8333 140.5,57.5C 138.833,57.5 137.167,57.5 135.5,57.5C 135.5,58.8333 135.5,60.1667 135.5,61.5C 135.389,62.1174 135.056,62.6174 134.5,63C 131.522,63.696 128.522,64.196 125.5,64.5C 124.182,61.7425 123.515,58.5758 123.5,55C 123.585,51.2378 124.252,47.7378 125.5,44.5C 127.903,44.552 130.236,44.2186 132.5,43.5C 132.5,40.5 132.5,37.5 132.5,34.5 Z"/></g>
<g><path style="opacity:1" fill="#eb9c37" d="M 132.5,43.5 C 134.167,43.5 135.833,43.5 137.5,43.5C 137.5,44.8333 137.5,46.1667 137.5,47.5C 135.833,47.5 134.167,47.5 132.5,47.5C 132.5,46.1667 132.5,44.8333 132.5,43.5 Z"/></g>
<g><path style="opacity:1" fill="#f07e76" d="M 99.5,49.5 C 100.833,49.5 102.167,49.5 103.5,49.5C 103.5,51.5 103.5,53.5 103.5,55.5C 103.167,55.5 102.833,55.5 102.5,55.5C 102.5,53.8333 102.5,52.1667 102.5,50.5C 101.167,50.5 99.8333,50.5 98.5,50.5C 98.5,52.1667 98.5,53.8333 98.5,55.5C 97.8529,54.7261 97.5195,53.7261 97.5,52.5C 97.6399,50.9704 98.3065,49.9704 99.5,49.5 Z"/></g>
<g><path style="opacity:1" fill="#ffebe9" d="M 102.5,55.5 C 101.167,55.5 99.8333,55.5 98.5,55.5C 98.5,53.8333 98.5,52.1667 98.5,50.5C 99.8333,50.5 101.167,50.5 102.5,50.5C 102.5,52.1667 102.5,53.8333 102.5,55.5 Z"/></g>
<g><path style="opacity:1" fill="#ca1a40" d="M 88.5,42.5 C 89.5,42.5 90.5,42.5 91.5,42.5C 89.7857,43.7384 87.7857,44.405 85.5,44.5C 81.6163,44.4238 77.9496,45.0905 74.5,46.5C 74.7576,50.4402 75.9243,54.1069 78,57.5C 78.3095,56.2341 78.8095,55.0674 79.5,54C 81.4727,53.5045 83.4727,53.3379 85.5,53.5C 85.6621,55.5273 85.4955,57.5273 85,59.5C 82.8526,60.1125 80.686,60.7792 78.5,61.5C 81.5274,62.2492 84.5274,62.9159 87.5,63.5C 87.2865,65.1439 87.6198,66.6439 88.5,68C 86.7923,69.5095 85.1256,71.0095 83.5,72.5C 84.7007,74.9095 86.3674,76.9095 88.5,78.5C 87.5,79.1667 86.5,79.8333 85.5,80.5C 88.9314,80.5757 92.2647,80.9091 95.5,81.5C 91.0917,81.062 89.4251,83.062 90.5,87.5C 92.2161,87.3713 93.8828,87.038 95.5,86.5C 94.0101,88.2798 92.0101,88.9465 89.5,88.5C 90.4776,91.1314 91.4776,93.7981 92.5,96.5C 90.4197,97.5282 90.0864,98.8615 91.5,100.5C 89.8008,100.66 88.1341,100.494 86.5,100C 87.1432,97.254 87.4765,94.4206 87.5,91.5C 87.4783,88.4098 86.8117,85.7432 85.5,83.5C 84.1667,83.5 82.8333,83.5 81.5,83.5C 79.0799,83.2924 76.7466,83.6258 74.5,84.5C 73.7078,82.5352 73.0412,80.5352 72.5,78.5C 74.3596,77.6751 76.0262,76.6751 77.5,75.5C 78.4959,75.5858 79.3292,75.2524 80,74.5C 80.4935,72.8659 80.6602,71.1992 80.5,69.5C 84.4459,69.5123 86.1126,67.5123 85.5,63.5C 84.5,63.5 83.5,63.5 82.5,63.5C 77.8169,64.0738 73.1502,64.7404 68.5,65.5C 68.1875,60.421 66.6875,55.7543 64,51.5C 62.7453,50.7894 61.5786,49.956 60.5,49C 65.6503,47.5458 70.6503,46.0458 75.5,44.5C 79.7391,43.4654 84.0725,42.7988 88.5,42.5 Z"/></g>
<g><path style="opacity:1" fill="#ffe8f1" d="M 80.5,54.5 C 81.8333,54.5 83.1667,54.5 84.5,54.5C 85.2436,57.9496 83.9103,59.6162 80.5,59.5C 80.5,57.8333 80.5,56.1667 80.5,54.5 Z"/></g>
<g><path style="opacity:1" fill="#f75f29" d="M 111.5,47.5 C 111.833,47.5 112.167,47.5 112.5,47.5C 113.5,47.5 114.5,47.5 115.5,47.5C 117.5,47.5 119.5,47.5 121.5,47.5C 121.5,53.5 121.5,59.5 121.5,65.5C 120.167,65.5 118.833,65.5 117.5,65.5C 117.611,64.8826 117.944,64.3826 118.5,64C 115.461,59.5566 112.795,54.8899 110.5,50C 111.252,49.3292 111.586,48.4959 111.5,47.5 Z"/></g>
<g><path style="opacity:1" fill="#fa4f2a" d="M 105.5,40.5 C 107.5,40.5 109.5,40.5 111.5,40.5C 111.5,42.8333 111.5,45.1667 111.5,47.5C 111.586,48.4959 111.252,49.3292 110.5,50C 112.795,54.8899 115.461,59.5566 118.5,64C 117.944,64.3826 117.611,64.8826 117.5,65.5C 116.833,65.5 116.5,65.8333 116.5,66.5C 115.549,67.9187 115.216,69.5853 115.5,71.5C 117.167,71.5 118.833,71.5 120.5,71.5C 120.972,69.4687 121.972,67.8021 123.5,66.5C 126.631,65.9078 128.964,66.9078 130.5,69.5C 130.5,70.5 130.5,71.5 130.5,72.5C 128.219,72.0773 126.552,72.744 125.5,74.5C 125.5,76.1667 125.5,77.8333 125.5,79.5C 126.718,80.1614 128.051,80.8281 129.5,81.5C 127.668,82.0568 126.335,83.0568 125.5,84.5C 125.119,88.1188 124.119,91.4521 122.5,94.5C 121.955,91.1869 121.455,87.8536 121,84.5C 119.989,83.6634 118.822,83.33 117.5,83.5C 117.578,80.7482 117.745,78.0816 118,75.5C 117.586,75.0426 117.086,74.7093 116.5,74.5C 115.692,76.4233 115.192,78.4233 115,80.5C 113.768,77.6996 113.101,74.6996 113,71.5C 112.023,68.3808 110.189,65.8808 107.5,64C 108.022,63.4387 108.355,62.772 108.5,62C 107.183,60.3857 105.517,59.2191 103.5,58.5C 105.042,54.9242 105.875,51.2576 106,47.5C 104.513,46.8448 103.347,45.8448 102.5,44.5C 103.524,43.1482 104.524,41.8149 105.5,40.5 Z"/></g>
<g><path style="opacity:1" fill="#e89156" d="M 129.5,54.5 C 129.5,55.5 129.5,56.5 129.5,57.5C 130.5,57.5 131.5,57.5 132.5,57.5C 132.5,58.5 132.5,59.5 132.5,60.5C 130.194,60.9926 127.861,61.3259 125.5,61.5C 125.5,59.1667 125.5,56.8333 125.5,54.5C 126.833,54.5 128.167,54.5 129.5,54.5 Z"/></g>
<g><path style="opacity:1" fill="#e07248" d="M 115.5,47.5 C 117.607,46.5318 119.941,46.1984 122.5,46.5C 122.177,53.0221 122.51,59.3554 123.5,65.5C 123.5,65.8333 123.5,66.1667 123.5,66.5C 121.972,67.8021 120.972,69.4687 120.5,71.5C 120.5,69.8333 120.5,68.1667 120.5,66.5C 119.167,66.5 117.833,66.5 116.5,66.5C 116.5,65.8333 116.833,65.5 117.5,65.5C 118.833,65.5 120.167,65.5 121.5,65.5C 121.5,59.5 121.5,53.5 121.5,47.5C 119.5,47.5 117.5,47.5 115.5,47.5 Z"/></g>
<g><path style="opacity:1" fill="#fef1f5" d="M 82.5,63.5 C 83.5,63.5 84.5,63.5 85.5,63.5C 86.1126,67.5123 84.4459,69.5123 80.5,69.5C 80.6602,71.1992 80.4935,72.8659 80,74.5C 79.3292,75.2524 78.4959,75.5858 77.5,75.5C 75.7376,75.3573 74.0709,75.6906 72.5,76.5C 71.343,73.2156 71.1764,69.8823 72,66.5C 75.7041,65.9108 79.2041,64.9108 82.5,63.5 Z"/></g>
<g><path style="opacity:1" fill="#f88120" d="M 135.5,72.5 C 134.732,73.2625 134.232,74.2625 134,75.5C 133.059,73.2726 131.892,71.2726 130.5,69.5C 128.964,66.9078 126.631,65.9078 123.5,66.5C 123.5,66.1667 123.5,65.8333 123.5,65.5C 124.492,65.6716 125.158,65.3382 125.5,64.5C 128.522,64.196 131.522,63.696 134.5,63C 135.056,62.6174 135.389,62.1174 135.5,61.5C 136.15,61.1961 136.817,60.8627 137.5,60.5C 139.091,63.6752 140.091,67.0085 140.5,70.5C 138.219,70.0773 136.552,70.744 135.5,72.5 Z"/></g>
<g><path style="opacity:1" fill="#fefbe8" d="M 155.5,53.5 C 155.833,56.1667 156.167,58.8333 156.5,61.5C 159.167,61.5 161.833,61.5 164.5,61.5C 164.806,64.3854 164.473,67.0521 163.5,69.5C 161.207,71.4221 158.541,72.7554 155.5,73.5C 151.554,73.4877 149.887,75.4877 150.5,79.5C 148.955,78.7703 148.122,77.437 148,75.5C 147.995,78.2292 146.829,80.2292 144.5,81.5C 144.167,81.1667 143.833,80.8333 143.5,80.5C 144.167,79.8333 144.833,79.1667 145.5,78.5C 145,78.1667 144.5,77.8333 144,77.5C 142.333,78.1667 140.667,78.8333 139,79.5C 138.5,79.1667 138,78.8333 137.5,78.5C 138.645,77.109 138.645,75.7757 137.5,74.5C 136.83,76.2914 136.163,77.9581 135.5,79.5C 135.5,77.1667 135.5,74.8333 135.5,72.5C 137.167,72.5 138.833,72.5 140.5,72.5C 140.5,73.8333 140.5,75.1667 140.5,76.5C 142.144,76.7135 143.644,76.3802 145,75.5C 145.499,70.8452 145.666,66.1785 145.5,61.5C 147.062,63.3717 148.062,65.7051 148.5,68.5C 149.337,61.5218 149.337,54.5218 148.5,47.5C 155.443,44.7863 157.776,46.7863 155.5,53.5 Z"/></g>
<g><path style="opacity:1" fill="#f4c632" d="M 163.5,69.5 C 160.946,70.388 158.279,70.7214 155.5,70.5C 155.5,68.1667 155.5,65.8333 155.5,63.5C 158.127,62.9084 160.794,62.5751 163.5,62.5C 163.5,64.8333 163.5,67.1667 163.5,69.5 Z"/></g>
<g><path style="opacity:1" fill="#eeba40" d="M 155.5,63.5 C 153.883,64.038 152.216,64.3713 150.5,64.5C 149.425,60.062 151.092,58.062 155.5,58.5C 155.5,60.1667 155.5,61.8333 155.5,63.5 Z"/></g>
<g><path style="opacity:1" fill="#f0be3b" d="M 155.5,53.5 C 153.833,53.5 152.167,53.5 150.5,53.5C 150.162,49.8493 151.828,48.1826 155.5,48.5C 155.5,50.1667 155.5,51.8333 155.5,53.5 Z"/></g>
<g><path style="opacity:1" fill="#ffe6d2" d="M 116.5,66.5 C 117.833,66.5 119.167,66.5 120.5,66.5C 120.5,68.1667 120.5,69.8333 120.5,71.5C 118.833,71.5 117.167,71.5 115.5,71.5C 115.216,69.5853 115.549,67.9187 116.5,66.5 Z"/></g>
<g><path style="opacity:1" fill="#f3982c" d="M 145.5,61.5 C 145.666,66.1785 145.499,70.8452 145,75.5C 143.644,76.3802 142.144,76.7135 140.5,76.5C 140.5,75.1667 140.5,73.8333 140.5,72.5C 138.833,72.5 137.167,72.5 135.5,72.5C 136.552,70.744 138.219,70.0773 140.5,70.5C 140.091,67.0085 139.091,63.6752 137.5,60.5C 136.817,60.8627 136.15,61.1961 135.5,61.5C 135.5,60.1667 135.5,58.8333 135.5,57.5C 137.167,57.5 138.833,57.5 140.5,57.5C 140.5,58.8333 140.5,60.1667 140.5,61.5C 142.167,61.5 143.833,61.5 145.5,61.5 Z"/></g>
<g><path style="opacity:1" fill="#871436" d="M 62.5,46.5 C 60.4855,47.9238 58.1522,48.5905 55.5,48.5C 55.5,52.1667 55.5,55.8333 55.5,59.5C 57.1238,59.3601 58.2904,60.0267 59,61.5C 60.8916,68.3396 63.0583,75.0063 65.5,81.5C 65.3178,83.6746 64.6511,85.6746 63.5,87.5C 65.7201,89.6839 67.0535,92.3505 67.5,95.5C 65.8333,95.5 64.1667,95.5 62.5,95.5C 61.7434,88.9876 59.5767,82.9876 56,77.5C 53.3569,68.6051 51.5236,59.6051 50.5,50.5C 52.3797,50.7709 53.713,50.1042 54.5,48.5C 56.9052,47.2318 59.5718,46.5651 62.5,46.5 Z"/></g>
<g><path style="opacity:1" fill="#a5193b" d="M 75.5,44.5 C 70.6503,46.0458 65.6503,47.5458 60.5,49C 61.5786,49.956 62.7453,50.7894 64,51.5C 66.6875,55.7543 68.1875,60.421 68.5,65.5C 73.1502,64.7404 77.8169,64.0738 82.5,63.5C 79.2041,64.9108 75.7041,65.9108 72,66.5C 71.1764,69.8823 71.343,73.2156 72.5,76.5C 74.0709,75.6906 75.7376,75.3573 77.5,75.5C 76.0262,76.6751 74.3596,77.6751 72.5,78.5C 73.0412,80.5352 73.7078,82.5352 74.5,84.5C 76.7466,83.6258 79.0799,83.2924 81.5,83.5C 80.0697,84.5375 78.403,85.2041 76.5,85.5C 76.1667,85.5 75.8333,85.5 75.5,85.5C 74.6787,88.6414 74.1787,91.9748 74,95.5C 72.7475,92.9865 72.2475,90.3198 72.5,87.5C 68.0365,87.3676 67.3698,85.7009 70.5,82.5C 68.9547,81.5481 67.288,81.2148 65.5,81.5C 63.0583,75.0063 60.8916,68.3396 59,61.5C 58.2904,60.0267 57.1238,59.3601 55.5,59.5C 55.5,55.8333 55.5,52.1667 55.5,48.5C 58.1522,48.5905 60.4855,47.9238 62.5,46.5C 66.814,45.7255 71.1474,45.0588 75.5,44.5 Z"/></g>
<g><path style="opacity:1" fill="#ec2143" d="M 87.5,63.5 C 88.3532,66.1873 89.8532,68.5206 92,70.5C 92.4017,69.1279 92.9017,67.7946 93.5,66.5C 92.9747,65.8076 92.3081,65.3076 91.5,65C 92.8333,64.8333 94.1667,64.6667 95.5,64.5C 97.3328,64.5854 98.6661,65.2521 99.5,66.5C 101.441,68.0106 101.941,70.0106 101,72.5C 95.8071,73.4938 95.3071,75.4938 99.5,78.5C 98.7542,79.7362 98.4208,81.0695 98.5,82.5C 101.144,82.8399 103.477,82.1733 105.5,80.5C 106.417,81.1272 107.417,81.4606 108.5,81.5C 112.144,82.4047 113.311,84.7381 112,88.5C 110.667,89.1667 109.333,89.8333 108,90.5C 107.785,93.8557 107.785,97.189 108,100.5C 106.282,101.85 104.448,103.017 102.5,104C 103.252,104.671 103.586,105.504 103.5,106.5C 102.082,108.308 100.082,108.975 97.5,108.5C 97.8588,106.234 97.1922,104.401 95.5,103C 99.1666,102.429 102.5,101.263 105.5,99.5C 105.5,95.8333 105.5,92.1667 105.5,88.5C 107.167,88.5 108.833,88.5 110.5,88.5C 110.5,86.8333 110.5,85.1667 110.5,83.5C 107.333,83.4001 104.333,84.0668 101.5,85.5C 100.548,87.0453 100.215,88.712 100.5,90.5C 98.7085,90.366 97.0418,90.6993 95.5,91.5C 95.1187,95.1188 94.1187,98.4521 92.5,101.5C 91.8333,101.5 91.5,101.167 91.5,100.5C 90.0864,98.8615 90.4197,97.5282 92.5,96.5C 91.4776,93.7981 90.4776,91.1314 89.5,88.5C 92.0101,88.9465 94.0101,88.2798 95.5,86.5C 95.5,84.8333 95.5,83.1667 95.5,81.5C 92.2647,80.9091 88.9314,80.5757 85.5,80.5C 86.5,79.8333 87.5,79.1667 88.5,78.5C 86.3674,76.9095 84.7007,74.9095 83.5,72.5C 85.1256,71.0095 86.7923,69.5095 88.5,68C 87.6198,66.6439 87.2865,65.1439 87.5,63.5 Z"/></g>
<g><path style="opacity:1" fill="#ffe4e7" d="M 99.5,66.5 C 99.5,68.1667 99.5,69.8333 99.5,71.5C 97.8333,71.5 96.1667,71.5 94.5,71.5C 94.1617,67.8493 95.8284,66.1826 99.5,66.5 Z"/></g>
<g><path style="opacity:1" fill="#eab146" d="M 155.5,73.5 C 156.113,77.5123 154.446,79.5123 150.5,79.5C 149.887,75.4877 151.554,73.4877 155.5,73.5 Z"/></g>
<g><path style="opacity:1" fill="#fff0db" d="M 125.5,74.5 C 127.167,74.5 128.833,74.5 130.5,74.5C 130.5,76.1667 130.5,77.8333 130.5,79.5C 128.833,79.5 127.167,79.5 125.5,79.5C 125.5,77.8333 125.5,76.1667 125.5,74.5 Z"/></g>
<g><path style="opacity:1" fill="#f07839" d="M 130.5,69.5 C 131.892,71.2726 133.059,73.2726 134,75.5C 134.232,74.2625 134.732,73.2625 135.5,72.5C 135.5,74.8333 135.5,77.1667 135.5,79.5C 135.5,80.8333 135.5,82.1667 135.5,83.5C 132.167,83.8333 128.833,84.1667 125.5,84.5C 126.335,83.0568 127.668,82.0568 129.5,81.5C 128.051,80.8281 126.718,80.1614 125.5,79.5C 127.167,79.5 128.833,79.5 130.5,79.5C 130.5,77.8333 130.5,76.1667 130.5,74.5C 128.833,74.5 127.167,74.5 125.5,74.5C 126.552,72.744 128.219,72.0773 130.5,72.5C 130.5,71.5 130.5,70.5 130.5,69.5 Z"/></g>
<g><path style="opacity:1" fill="#fa3933" d="M 105.5,40.5 C 104.524,41.8149 103.524,43.1482 102.5,44.5C 103.347,45.8448 104.513,46.8448 106,47.5C 105.875,51.2576 105.042,54.9242 103.5,58.5C 105.517,59.2191 107.183,60.3857 108.5,62C 108.355,62.772 108.022,63.4387 107.5,64C 110.189,65.8808 112.023,68.3808 113,71.5C 113.101,74.6996 113.768,77.6996 115,80.5C 115.192,78.4233 115.692,76.4233 116.5,74.5C 117.086,74.7093 117.586,75.0426 118,75.5C 117.745,78.0816 117.578,80.7482 117.5,83.5C 118.822,83.33 119.989,83.6634 121,84.5C 121.455,87.8536 121.955,91.1869 122.5,94.5C 120.62,94.2291 119.287,94.8958 118.5,96.5C 117.5,96.5 116.5,96.5 115.5,96.5C 115.5,98.1667 115.5,99.8333 115.5,101.5C 116.209,102.404 117.209,102.737 118.5,102.5C 118.5,103.5 118.5,104.5 118.5,105.5C 113.527,106.164 108.527,106.497 103.5,106.5C 103.586,105.504 103.252,104.671 102.5,104C 104.448,103.017 106.282,101.85 108,100.5C 107.785,97.189 107.785,93.8557 108,90.5C 109.333,89.8333 110.667,89.1667 112,88.5C 113.311,84.7381 112.144,82.4047 108.5,81.5C 107.464,79.6089 107.464,77.7755 108.5,76C 105.989,74.0843 103.989,71.751 102.5,69C 102.896,67.1026 103.896,65.6026 105.5,64.5C 100.03,63.0413 99.363,60.0413 103.5,55.5C 103.5,53.5 103.5,51.5 103.5,49.5C 102.167,49.5 100.833,49.5 99.5,49.5C 100.091,48.8485 100.757,48.1818 101.5,47.5C 100.253,45.9579 100.253,44.4579 101.5,43C 99.8659,42.5065 98.1992,42.3398 96.5,42.5C 99.3447,41.6562 102.345,40.9896 105.5,40.5 Z"/></g>
<g><path style="opacity:1" fill="#ffd5e0" d="M 95.5,81.5 C 95.5,83.1667 95.5,84.8333 95.5,86.5C 93.8828,87.038 92.2161,87.3713 90.5,87.5C 89.4251,83.062 91.0917,81.062 95.5,81.5 Z"/></g>
<g><path style="opacity:1" fill="#fef4f8" d="M 81.5,83.5 C 82.8333,83.5 84.1667,83.5 85.5,83.5C 86.1083,88.9443 85.4417,93.9443 83.5,98.5C 81.8235,97.8166 81.1568,96.4832 81.5,94.5C 79.8333,94.5 78.1667,94.5 76.5,94.5C 76.5,91.5 76.5,88.5 76.5,85.5C 78.403,85.2041 80.0697,84.5375 81.5,83.5 Z"/></g>
<g><path style="opacity:1" fill="#cb7e92" d="M 75.5,85.5 C 75.8333,85.5 76.1667,85.5 76.5,85.5C 76.5,88.5 76.5,91.5 76.5,94.5C 78.1667,94.5 79.8333,94.5 81.5,94.5C 81.1568,96.4832 81.8235,97.8166 83.5,98.5C 82.5,99.8333 81.5,99.8333 80.5,98.5C 80.5,97.5 80.5,96.5 80.5,95.5C 78.8333,95.5 77.1667,95.5 75.5,95.5C 75.5,92.1667 75.5,88.8333 75.5,85.5 Z"/></g>
<g><path style="opacity:1" fill="#e39551" d="M 142.5,85.5 C 143.5,85.5 144.5,85.5 145.5,85.5C 145.5,87.5 145.5,89.5 145.5,91.5C 143.833,91.5 142.167,91.5 140.5,91.5C 140.259,89.1137 140.925,87.1137 142.5,85.5 Z"/></g>
<g><path style="opacity:1" fill="#db7b50" d="M 135.5,97.5 C 134.527,95.0521 134.194,92.3854 134.5,89.5C 133.5,89.5 132.5,89.5 131.5,89.5C 131.768,91.099 131.434,92.4324 130.5,93.5C 130.5,91.8333 130.5,90.1667 130.5,88.5C 132.167,88.5 133.833,88.5 135.5,88.5C 135.5,91.5 135.5,94.5 135.5,97.5 Z"/></g>
<g><path style="opacity:1" fill="#961538" d="M 65.5,81.5 C 67.288,81.2148 68.9547,81.5481 70.5,82.5C 67.3698,85.7009 68.0365,87.3676 72.5,87.5C 72.2475,90.3198 72.7475,92.9865 74,95.5C 74.1787,91.9748 74.6787,88.6414 75.5,85.5C 75.5,88.8333 75.5,92.1667 75.5,95.5C 77.1667,95.5 78.8333,95.5 80.5,95.5C 80.5,96.5 80.5,97.5 80.5,98.5C 79.1336,96.6495 77.467,96.3162 75.5,97.5C 77.1407,100.558 77.9741,103.892 78,107.5C 79.0113,108.337 80.1779,108.67 81.5,108.5C 81.5,109.5 81.5,110.5 81.5,111.5C 83.9496,111.702 86.283,111.369 88.5,110.5C 90.8333,110.5 93.1667,110.5 95.5,110.5C 92.0542,111.687 88.3875,112.354 84.5,112.5C 80.4862,112.666 76.4862,112.499 72.5,112C 71.3078,110.055 71.3078,108.055 72.5,106C 71.1325,103.214 70.1325,100.38 69.5,97.5C 69.1583,96.6618 68.4916,96.3284 67.5,96.5C 67.5,96.1667 67.5,95.8333 67.5,95.5C 67.0535,92.3505 65.7201,89.6839 63.5,87.5C 64.6511,85.6746 65.3178,83.6746 65.5,81.5 Z"/></g>
<g><path style="opacity:1" fill="#ffeef0" d="M 105.5,99.5 C 102.167,99.8333 98.8333,100.167 95.5,100.5C 95.5,97.5 95.5,94.5 95.5,91.5C 97.0418,90.6993 98.7085,90.366 100.5,90.5C 100.215,88.712 100.548,87.0453 101.5,85.5C 104.333,84.0668 107.333,83.4001 110.5,83.5C 110.5,85.1667 110.5,86.8333 110.5,88.5C 108.833,88.5 107.167,88.5 105.5,88.5C 105.5,92.1667 105.5,95.8333 105.5,99.5 Z"/></g>
<g><path style="opacity:1" fill="#5a1431" d="M 49.5,78.5 C 51.1094,81.1489 51.9428,84.1489 52,87.5C 55.914,92.36 57.914,98.0267 58,104.5C 60.3682,106.594 62.2015,109.094 63.5,112C 62.1667,112.667 60.8333,113.333 59.5,114C 62.2784,115.392 65.2784,115.892 68.5,115.5C 66.3432,116.407 64.0098,117.073 61.5,117.5C 59.7857,116.262 57.7857,115.595 55.5,115.5C 55.8242,111.445 55.4909,107.445 54.5,103.5C 53.5745,104.641 52.7412,104.641 52,103.5C 50.2739,95.2518 49.4406,86.9185 49.5,78.5 Z"/></g>
<g><path style="opacity:1" fill="#4f2137" d="M 49.5,50.5 C 49.5,59.8333 49.5,69.1667 49.5,78.5C 49.4406,86.9185 50.2739,95.2518 52,103.5C 52.7412,104.641 53.5745,104.641 54.5,103.5C 55.4909,107.445 55.8242,111.445 55.5,115.5C 57.7857,115.595 59.7857,116.262 61.5,117.5C 57.9468,117.844 54.4468,118.511 51,119.5C 50.228,119.355 49.5613,119.022 49,118.5C 48.1704,95.6629 48.337,72.9963 49.5,50.5 Z"/></g>
<g><path style="opacity:1" fill="#f85c29" d="M 135.5,97.5 C 135.414,98.4959 135.748,99.3292 136.5,100C 133.635,102.286 130.302,103.12 126.5,102.5C 126.132,99.4669 126.798,96.8002 128.5,94.5C 129.167,94.1667 129.833,93.8333 130.5,93.5C 131.434,92.4324 131.768,91.099 131.5,89.5C 132.5,89.5 133.5,89.5 134.5,89.5C 134.194,92.3854 134.527,95.0521 135.5,97.5 Z"/></g>
<g><path style="opacity:1" fill="#fadfea" d="M 67.5,96.5 C 68.4916,96.3284 69.1583,96.6618 69.5,97.5C 69.5,99.1667 69.5,100.833 69.5,102.5C 67.8333,102.5 66.1667,102.5 64.5,102.5C 64.5,100.833 64.5,99.1667 64.5,97.5C 65.791,97.7373 66.791,97.404 67.5,96.5 Z"/></g>
<g><path style="opacity:1" fill="#e66e45" d="M 125.5,84.5 C 125.5,87.8333 125.5,91.1667 125.5,94.5C 126.5,94.5 127.5,94.5 128.5,94.5C 126.798,96.8002 126.132,99.4669 126.5,102.5C 130.302,103.12 133.635,102.286 136.5,100C 135.748,99.3292 135.414,98.4959 135.5,97.5C 137.167,97.5 138.833,97.5 140.5,97.5C 140.773,99.451 140.107,100.951 138.5,102C 134.225,103.158 129.891,103.992 125.5,104.5C 125.5,101.5 125.5,98.5 125.5,95.5C 123.097,95.448 120.764,95.7814 118.5,96.5C 119.287,94.8958 120.62,94.2291 122.5,94.5C 124.119,91.4521 125.119,88.1188 125.5,84.5 Z"/></g>
<g><path style="opacity:1" fill="#711534" d="M 54.5,48.5 C 53.713,50.1042 52.3797,50.7709 50.5,50.5C 51.5236,59.6051 53.3569,68.6051 56,77.5C 59.5767,82.9876 61.7434,88.9876 62.5,95.5C 64.1667,95.5 65.8333,95.5 67.5,95.5C 67.5,95.8333 67.5,96.1667 67.5,96.5C 66.791,97.404 65.791,97.7373 64.5,97.5C 64.5,99.1667 64.5,100.833 64.5,102.5C 66.1667,102.5 67.8333,102.5 69.5,102.5C 69.5,100.833 69.5,99.1667 69.5,97.5C 70.1325,100.38 71.1325,103.214 72.5,106C 71.3078,108.055 71.3078,110.055 72.5,112C 76.4862,112.499 80.4862,112.666 84.5,112.5C 79.4281,114.246 74.0947,115.246 68.5,115.5C 65.2784,115.892 62.2784,115.392 59.5,114C 60.8333,113.333 62.1667,112.667 63.5,112C 62.2015,109.094 60.3682,106.594 58,104.5C 57.914,98.0267 55.914,92.36 52,87.5C 51.9428,84.1489 51.1094,81.1489 49.5,78.5C 49.5,69.1667 49.5,59.8333 49.5,50.5C 50.6354,48.7868 52.302,48.1201 54.5,48.5 Z"/></g>
<g><path style="opacity:1" fill="#b31e40" d="M 85.5,83.5 C 86.8117,85.7432 87.4783,88.4098 87.5,91.5C 87.4765,94.4206 87.1432,97.254 86.5,100C 88.1341,100.494 89.8008,100.66 91.5,100.5C 91.5,101.167 91.8333,101.5 92.5,101.5C 93.3419,105.621 92.0085,108.621 88.5,110.5C 86.283,111.369 83.9496,111.702 81.5,111.5C 81.5,110.5 81.5,109.5 81.5,108.5C 80.1779,108.67 79.0113,108.337 78,107.5C 77.9741,103.892 77.1407,100.558 75.5,97.5C 77.467,96.3162 79.1336,96.6495 80.5,98.5C 81.5,99.8333 82.5,99.8333 83.5,98.5C 85.4417,93.9443 86.1083,88.9443 85.5,83.5 Z"/></g>
<g><path style="opacity:1" fill="#fbd2de" d="M 86.5,102.5 C 87.8333,102.5 89.1667,102.5 90.5,102.5C 91.1126,106.512 89.4459,108.512 85.5,108.5C 85.3253,106.379 85.6586,104.379 86.5,102.5 Z"/></g>
<g><path style="opacity:1" fill="#d32545" d="M 95.5,91.5 C 95.5,94.5 95.5,97.5 95.5,100.5C 98.8333,100.167 102.167,99.8333 105.5,99.5C 102.5,101.263 99.1666,102.429 95.5,103C 97.1922,104.401 97.8588,106.234 97.5,108.5C 100.082,108.975 102.082,108.308 103.5,106.5C 108.527,106.497 113.527,106.164 118.5,105.5C 118.5,104.5 118.5,103.5 118.5,102.5C 117.209,102.737 116.209,102.404 115.5,101.5C 117.167,101.5 118.833,101.5 120.5,101.5C 120.5,103.167 120.5,104.833 120.5,106.5C 112.165,107.834 103.832,109.167 95.5,110.5C 93.1667,110.5 90.8333,110.5 88.5,110.5C 92.0085,108.621 93.3419,105.621 92.5,101.5C 94.1187,98.4521 95.1187,95.1188 95.5,91.5 Z"/></g>
<g><path style="opacity:1" fill="#181818" d="M 246.5,111.5 C 251.328,111.385 252.661,113.552 250.5,118C 244.738,118.418 243.404,116.251 246.5,111.5 Z"/></g>
<g><path style="opacity:1" fill="#101010" d="M 135.5,112.5 C 137.604,112.201 139.604,112.534 141.5,113.5C 140.26,119.086 139.594,124.753 139.5,130.5C 140.873,130.657 142.207,130.49 143.5,130C 148.5,124.333 153.5,118.667 158.5,113C 160.579,112.192 162.579,112.359 164.5,113.5C 158.649,119.517 152.983,125.683 147.5,132C 152.167,139 156.833,146 161.5,153C 159.5,153.667 157.5,153.667 155.5,153C 151.461,147.758 147.795,142.258 144.5,136.5C 142.827,134.914 140.827,134.247 138.5,134.5C 137.423,140.782 136.757,147.116 136.5,153.5C 134.833,153.5 133.167,153.5 131.5,153.5C 132.767,139.828 134.101,126.161 135.5,112.5 Z"/></g>
<g><path style="opacity:1" fill="#f81340" d="M 290.5,111.5 C 292.833,111.5 295.167,111.5 297.5,111.5C 297.768,113.099 297.434,114.432 296.5,115.5C 295.421,118.617 294.754,121.95 294.5,125.5C 294.716,127.384 295.383,129.051 296.5,130.5C 293.363,132.305 291.363,134.971 290.5,138.5C 289.104,137.148 288.437,135.481 288.5,133.5C 290.277,126.283 290.944,118.95 290.5,111.5 Z"/></g>
<g><path style="opacity:1" fill="#131313" d="M 177.5,123.5 C 188.988,124.116 193.488,130.116 191,141.5C 187.941,151.235 181.441,155.068 171.5,153C 164.528,146.249 163.694,138.749 169,130.5C 171.441,127.546 174.275,125.213 177.5,123.5 Z"/></g>
<g><path style="opacity:1" fill="#141414" d="M 210.5,123.5 C 215.576,123.073 218.409,125.407 219,130.5C 221.205,127.96 223.705,125.793 226.5,124C 233.955,123.33 236.955,126.83 235.5,134.5C 235.02,140.86 234.353,147.194 233.5,153.5C 231.833,153.5 230.167,153.5 228.5,153.5C 229.165,147.507 229.832,141.507 230.5,135.5C 231.911,129.879 229.911,127.712 224.5,129C 221.894,130.938 220.061,133.438 219,136.5C 218.243,142.149 217.743,147.816 217.5,153.5C 215.396,153.799 213.396,153.466 211.5,152.5C 212.946,144.883 213.779,137.216 214,129.5C 211.455,128.203 208.955,128.369 206.5,130C 204.623,132.251 203.123,134.751 202,137.5C 201.316,142.822 200.816,148.156 200.5,153.5C 198.833,153.5 197.167,153.5 195.5,153.5C 196.253,143.807 197.253,134.14 198.5,124.5C 199.833,124.5 201.167,124.5 202.5,124.5C 202.338,126.527 202.505,128.527 203,130.5C 205.069,127.594 207.569,125.261 210.5,123.5 Z"/></g>
<g><path style="opacity:1" fill="#141414" d="M 244.5,124.5 C 246.167,124.5 247.833,124.5 249.5,124.5C 248.565,134.181 247.565,143.847 246.5,153.5C 244.833,153.5 243.167,153.5 241.5,153.5C 242.418,143.824 243.418,134.157 244.5,124.5 Z"/></g>
<g><path style="opacity:1" fill="#fed7e1" d="M 290.5,111.5 C 292.948,110.527 295.615,110.194 298.5,110.5C 298.8,115.099 298.467,119.599 297.5,124C 299.107,123.981 300.774,123.815 302.5,123.5C 301.833,124.167 301.167,124.833 300.5,125.5C 298.629,125.859 297.129,126.859 296,128.5C 295.924,124.181 296.091,119.848 296.5,115.5C 297.434,114.432 297.768,113.099 297.5,111.5C 295.167,111.5 292.833,111.5 290.5,111.5 Z"/></g>
<g><path style="opacity:1" fill="#f3f3f3" d="M 178.5,127.5 C 185.598,128.458 188.098,132.458 186,139.5C 184.907,146.945 180.74,150.112 173.5,149C 168.649,140.375 170.316,133.208 178.5,127.5 Z"/></g>
<g><path style="opacity:1" fill="#fef4f7" d="M 335.5,130.5 C 336.511,134.112 336.678,137.779 336,141.5C 334.33,148.176 330.663,149.842 325,146.5C 324.034,141.61 324.534,136.943 326.5,132.5C 328.803,129.303 331.803,128.637 335.5,130.5 Z"/></g>
<g><path style="opacity:1" fill="#f31943" d="M 373.5,128.5 C 373.666,132.514 373.499,136.514 373,140.5C 371.878,142.42 371.044,144.42 370.5,146.5C 366.446,148.406 365.612,147.406 368,143.5C 368.667,138.833 368.667,134.167 368,129.5C 366.057,128.193 364.223,128.193 362.5,129.5C 361.624,129.631 360.957,129.298 360.5,128.5C 361.193,127.482 361.859,126.482 362.5,125.5C 364.455,123.674 366.788,123.174 369.5,124C 371.635,124.876 372.969,126.376 373.5,128.5 Z"/></g>
<g><path style="opacity:1" fill="#f71240" d="M 350.5,126.5 C 351.833,126.5 353.167,126.5 354.5,126.5C 354.429,129.024 355.429,131.024 357.5,132.5C 356.667,134.167 355.833,135.833 355,137.5C 354.728,142.549 354.228,147.549 353.5,152.5C 352.419,155.627 351.753,158.96 351.5,162.5C 350.167,162.5 348.833,162.5 347.5,162.5C 349.158,150.557 350.158,138.557 350.5,126.5 Z"/></g>
<g><path style="opacity:1" fill="#e1445e" d="M 302.5,123.5 C 306.888,122.943 310.055,124.61 312,128.5C 312.739,135.725 312.239,142.725 310.5,149.5C 310.666,142.492 310.5,135.492 310,128.5C 309.626,127.584 309.126,126.75 308.5,126C 305.854,125.503 303.187,125.336 300.5,125.5C 301.167,124.833 301.833,124.167 302.5,123.5 Z"/></g>
<g><path style="opacity:1" fill="#e03f59" d="M 340.5,127.5 C 323.195,124.138 316.195,131.138 319.5,148.5C 319.5,149.167 319.5,149.833 319.5,150.5C 314.158,139.027 317.158,130.194 328.5,124C 333.305,122.746 337.305,123.913 340.5,127.5 Z"/></g>
<g><path style="opacity:1" fill="#eb294c" d="M 290.5,111.5 C 290.944,118.95 290.277,126.283 288.5,133.5C 288.437,135.481 289.104,137.148 290.5,138.5C 291.363,134.971 293.363,132.305 296.5,130.5C 295.383,129.051 294.716,127.384 294.5,125.5C 294.754,121.95 295.421,118.617 296.5,115.5C 296.091,119.848 295.924,124.181 296,128.5C 297.129,126.859 298.629,125.859 300.5,125.5C 300.5,126.5 300.5,127.5 300.5,128.5C 302.099,128.232 303.432,128.566 304.5,129.5C 300.853,129.622 298.019,131.288 296,134.5C 294.232,140.706 293.065,147.039 292.5,153.5C 290.5,153.5 288.5,153.5 286.5,153.5C 287.164,148.527 287.497,143.527 287.5,138.5C 287.944,129.298 288.944,120.298 290.5,111.5 Z"/></g>
<g><path style="opacity:1" fill="#3d2033" d="M 47.5,129.5 C 48.552,129.351 49.552,129.517 50.5,130C 56.6554,134.911 62.9888,139.577 69.5,144C 70.3802,145.356 70.7135,146.856 70.5,148.5C 69.448,148.649 68.448,148.483 67.5,148C 60.098,142.971 53.098,137.471 46.5,131.5C 46.8627,130.817 47.1961,130.15 47.5,129.5 Z"/></g>
<g><path style="opacity:1" fill="#f81341" d="M 340.5,127.5 C 342.159,131.285 342.659,135.285 342,139.5C 341.147,141.125 340.147,141.458 339,140.5C 338.502,137.183 338.335,133.85 338.5,130.5C 337.5,130.5 336.5,130.5 335.5,130.5C 331.803,128.637 328.803,129.303 326.5,132.5C 324.926,132.937 323.759,133.937 323,135.5C 322.667,139.5 322.333,143.5 322,147.5C 321.329,148.252 320.496,148.586 319.5,148.5C 316.195,131.138 323.195,124.138 340.5,127.5 Z"/></g>
<g><path style="opacity:1" fill="#f61340" d="M 300.5,125.5 C 303.187,125.336 305.854,125.503 308.5,126C 309.126,126.75 309.626,127.584 310,128.5C 310.5,135.492 310.666,142.492 310.5,149.5C 309.596,150.209 309.263,151.209 309.5,152.5C 307.833,152.5 306.167,152.5 304.5,152.5C 304.916,147.507 305.249,142.507 305.5,137.5C 305.721,134.721 305.388,132.054 304.5,129.5C 303.432,128.566 302.099,128.232 300.5,128.5C 300.5,127.5 300.5,126.5 300.5,125.5 Z"/></g>
<g><path style="opacity:1" fill="#1f1f2c" d="M 45.5,140.5 C 49.7364,142.723 53.7364,145.389 57.5,148.5C 58.3857,149.325 58.719,150.325 58.5,151.5C 53.645,150.503 49.3117,148.336 45.5,145C 44.2721,143.51 44.2721,142.01 45.5,140.5 Z"/></g>
<g><path style="opacity:1" fill="#e25972" d="M 287.5,138.5 C 287.497,143.527 287.164,148.527 286.5,153.5C 288.5,153.5 290.5,153.5 292.5,153.5C 290.393,154.468 288.059,154.802 285.5,154.5C 285.376,148.931 286.043,143.598 287.5,138.5 Z"/></g>
<g><path style="opacity:1" fill="#ffe3eb" d="M 375.5,138.5 C 375.099,148.614 369.933,154.614 360,156.5C 358.893,156.415 357.893,156.081 357,155.5C 355.25,157.257 354.084,159.257 353.5,161.5C 353.5,158.5 353.5,155.5 353.5,152.5C 360.466,156.1 366.299,154.767 371,148.5C 372.62,145.107 374.12,141.774 375.5,138.5 Z"/></g>
<g><path style="opacity:1" fill="#ec2649" d="M 262.5,132.5 C 259.988,130.763 258.988,128.263 259.5,125C 259.934,116.566 264.434,112.066 273,111.5C 276.83,111.664 280.163,112.997 283,115.5C 283.723,118.125 282.723,119.792 280,120.5C 277.431,119.214 274.764,118.214 272,117.5C 266.977,118.542 265.31,121.542 267,126.5C 270.636,128.734 274.469,130.568 278.5,132C 283.118,139.42 282.118,146.087 275.5,152C 268.631,155.696 262.131,155.196 256,150.5C 255.013,146.494 256.513,144.661 260.5,145C 265.283,149.7 269.783,149.533 274,144.5C 274.667,142.833 274.667,141.167 274,139.5C 270.123,137.063 266.29,134.729 262.5,132.5 Z"/></g>
<g><path style="opacity:1" fill="#f8113f" d="M 262.5,132.5 C 260.415,128.719 260.082,124.719 261.5,120.5C 262.524,119.147 263.857,118.48 265.5,118.5C 265.335,121.518 265.502,124.518 266,127.5C 269.79,129.877 273.79,131.877 278,133.5C 279.33,136.231 279.83,138.898 279.5,141.5C 279.023,142.931 278.357,144.264 277.5,145.5C 277.418,142.667 277.252,139.667 277,136.5C 276.5,136 276,135.5 275.5,135C 270.966,134.731 266.633,133.898 262.5,132.5 Z"/></g>
<g><path style="opacity:1" fill="#ea2b4b" d="M 340.5,127.5 C 341.79,128.058 342.623,129.058 343,130.5C 345.797,146.353 339.297,154.186 323.5,154C 321.676,153.34 320.343,152.173 319.5,150.5C 319.5,149.833 319.5,149.167 319.5,148.5C 320.496,148.586 321.329,148.252 322,147.5C 322.333,143.5 322.667,139.5 323,135.5C 323.759,133.937 324.926,132.937 326.5,132.5C 324.534,136.943 324.034,141.61 325,146.5C 330.663,149.842 334.33,148.176 336,141.5C 336.678,137.779 336.511,134.112 335.5,130.5C 336.5,130.5 337.5,130.5 338.5,130.5C 338.335,133.85 338.502,137.183 339,140.5C 340.147,141.458 341.147,141.125 342,139.5C 342.659,135.285 342.159,131.285 340.5,127.5 Z"/></g>
<g><path style="opacity:1" fill="#e83451" d="M 362.5,125.5 C 361.859,126.482 361.193,127.482 360.5,128.5C 360.957,129.298 361.624,129.631 362.5,129.5C 364.223,128.193 366.057,128.193 368,129.5C 368.667,134.167 368.667,138.833 368,143.5C 365.612,147.406 366.446,148.406 370.5,146.5C 371.044,144.42 371.878,142.42 373,140.5C 373.499,136.514 373.666,132.514 373.5,128.5C 374.222,128.918 374.722,129.584 375,130.5C 375.497,133.146 375.664,135.813 375.5,138.5C 374.12,141.774 372.62,145.107 371,148.5C 366.299,154.767 360.466,156.1 353.5,152.5C 354.228,147.549 354.728,142.549 355,137.5C 355.833,135.833 356.667,134.167 357.5,132.5C 355.429,131.024 354.429,129.024 354.5,126.5C 353.167,126.5 351.833,126.5 350.5,126.5C 351.918,124.692 353.918,124.025 356.5,124.5C 356.34,126.199 356.506,127.866 357,129.5C 358.451,127.536 360.284,126.203 362.5,125.5 Z"/></g>
<g><path style="opacity:1" fill="#fef5f7" d="M 362.5,129.5 C 364.39,129.297 365.89,129.963 367,131.5C 368.652,137.964 367.152,143.464 362.5,148C 360.19,148.497 357.857,148.663 355.5,148.5C 354.206,140.766 356.54,134.433 362.5,129.5 Z"/></g>
<g><path style="opacity:1" fill="#dd4c63" d="M 305.5,137.5 C 305.249,142.507 304.916,147.507 304.5,152.5C 306.167,152.5 307.833,152.5 309.5,152.5C 309.263,151.209 309.596,150.209 310.5,149.5C 310.5,151.167 310.5,152.833 310.5,154.5C 308.167,154.5 305.833,154.5 303.5,154.5C 303.216,148.583 303.883,142.916 305.5,137.5 Z"/></g>
<g><path style="opacity:1" fill="#dc3a56" d="M 350.5,126.5 C 350.158,138.557 349.158,150.557 347.5,162.5C 348.833,162.5 350.167,162.5 351.5,162.5C 351.753,158.96 352.419,155.627 353.5,152.5C 353.5,155.5 353.5,158.5 353.5,161.5C 353.672,162.492 353.338,163.158 352.5,163.5C 350.5,163.5 348.5,163.5 346.5,163.5C 346.5,162.167 346.5,160.833 346.5,159.5C 347.276,148.294 348.61,137.294 350.5,126.5 Z"/></g>
<g><path style="opacity:1" fill="#f5f8f9" d="M 65.5,162.5 C 68.8333,162.5 72.1667,162.5 75.5,162.5C 75.7839,165.777 75.4505,168.943 74.5,172C 70.4643,172.728 66.4643,173.561 62.5,174.5C 61.914,174.291 61.414,173.957 61,173.5C 60.3333,170.5 60.3333,167.5 61,164.5C 62.6225,163.901 64.1225,163.234 65.5,162.5 Z"/></g>
<g><path style="opacity:1" fill="#f6a6b5" d="M 346.5,159.5 C 346.5,160.833 346.5,162.167 346.5,163.5C 348.5,163.5 350.5,163.5 352.5,163.5C 350.393,164.468 348.059,164.802 345.5,164.5C 345.216,162.585 345.549,160.919 346.5,159.5 Z"/></g>
<g><path style="opacity:1" fill="#e7e8e7" d="M 92.5,200.5 C 76.5,200.5 60.5,200.5 44.5,200.5C 67.2069,196.286 90.2069,193.286 113.5,191.5C 117.5,191.667 121.5,191.833 125.5,192C 124.672,192.915 123.672,193.581 122.5,194C 112.332,195.879 102.332,198.045 92.5,200.5 Z"/></g>
</svg>
